<?xml version="1.0" encoding="UTF-8" standalone="no"?>
<!DOCTYPE svg PUBLIC "-//W3C//DTD SVG 1.1//EN" "http://www.w3.org/Graphics/SVG/1.1/DTD/svg11.dtd">
<svg width="100%" height="100%" viewBox="0 0 379 116" version="1.1" xmlns="http://www.w3.org/2000/svg" xmlns:xlink="http://www.w3.org/1999/xlink" xml:space="preserve" xmlns:serif="http://www.serif.com/" style="fill-rule:evenodd;clip-rule:evenodd;stroke-linejoin:round;stroke-miterlimit:2;">
    <g transform="matrix(0.17684,0,0,0.169453,123.68,112.842)">
        <path d="M189.954,8.31L189.954,-128.09L71.075,-128.09L71.075,8.31L10.525,8.31L10.525,-312.71C28.429,-294.458 48.406,-292.242 71.474,-312.71L71.474,-185.51L190.355,-185.51L190.355,-311.511C211.285,-295.926 231.577,-293.639 250.903,-311.511L250.903,8.31L189.954,8.31Z" style="fill:rgb(0,199,138);"/>
    </g>
    <g transform="matrix(0.17684,0,0,0.169453,124.699,112.842)">
        <path d="M483.075,-254.09C455.214,-254.09 426.929,-256.153 400.909,-246.933C387.842,-242.302 375.906,-234.544 366.073,-224.749C366.073,-224.749 360.827,-219.739 356.513,-214.638C349.118,-205.893 343.848,-195.601 340.261,-184.343C340.261,-184.343 415.676,-184.326 457.509,-184.316C472.513,-184.313 484.674,-171.619 484.674,-155.961L484.674,-155.28C484.674,-139.38 472.323,-126.49 457.086,-126.49L337.233,-126.49C340.853,-107.755 350.658,-90.981 364.511,-77.205C366.54,-75.187 371.295,-71.082 375.894,-67.936C391.542,-57.232 409.893,-49.983 428.815,-49.91L483.875,-49.91L483.875,8.31C458.49,8.31 433.302,9.754 408.407,5.476C363.72,-2.204 321.901,-27.951 298.016,-67.44C283.182,-91.963 275.582,-120.783 274.955,-149.12C273.504,-214.707 318.65,-279.661 383.192,-302.597C400.35,-308.695 418.529,-311.832 436.686,-311.91L483.075,-311.91L483.075,-254.09Z" style="fill:rgb(0,199,138);"/>
    </g>
    <g transform="matrix(0.17684,0,0,0.169453,124.354,112.842)">
        <path d="M642.093,-317.912C685.692,-317.642 728.93,-295.371 748.71,-250.938C758.935,-227.971 762.572,-202.533 762.672,-177.49L762.674,-176.945L762.674,8.31L700.925,8.31L700.925,-126.09L631.974,-126.09C616.944,-126.09 604.76,-138.805 604.76,-154.49L604.76,-155.093C604.76,-171.229 617.294,-184.31 632.756,-184.31L699.725,-184.31C699.725,-191.26 699.742,-198.21 699.724,-205.16C699.71,-206.982 699.68,-207.292 699.618,-208.299C699.54,-209.573 699.419,-210.844 699.256,-212.109C696.114,-236.458 676.443,-258.949 650.762,-260.443C631.34,-261.572 610.599,-255.494 599.528,-238.626C592.307,-227.624 589.652,-213.889 589.481,-200.711L589.475,-199.981C588.874,-130.391 589.076,-61.014 589.475,8.31L529.325,8.31C529.325,-60.331 529.142,-128.972 529.326,-197.614C529.418,-231.835 542.257,-266.523 567.742,-289.679C587.46,-307.595 613.797,-317.658 640.634,-317.908C641.12,-317.912 641.606,-317.913 642.093,-317.912Z" style="fill:rgb(0,199,138);"/>
    </g>
    <g transform="matrix(0.17684,0,0,0.169453,125.814,112.842)">
        <path d="M853.475,-104.712C853.542,-88.657 855.594,-71.923 868.004,-60.3C873.206,-55.429 879.605,-51.78 886.522,-50.107C894.931,-48.073 903.706,-48.313 912.402,-48.31L976.674,-48.31L976.674,8.711C949.907,8.711 923.14,8.781 896.373,8.709C875.341,8.598 854.18,2.8 836.856,-9.346C819.896,-21.238 806.058,-37.643 799.178,-57.383C793.578,-73.448 792.145,-90.753 792.125,-107.595L792.125,-311.91C811.474,-294.635 831.763,-292.1 853.475,-311.91L853.475,-104.712Z" style="fill:rgb(0,199,138);"/>
    </g>
    <g transform="matrix(0.17684,0,0,0.169453,127.661,112.842)">
        <path d="M1135.48,-254.49L1057.87,-254.49L1057.87,9.11L996.926,9.11L996.926,-254.49L920.125,-254.49L920.125,-311.91L1135.48,-311.91L1135.48,-254.49Z" style="fill:rgb(0,199,138);"/>
    </g>
    <g transform="matrix(0.17684,0,0,0.169453,132.435,112.842)">
        <path d="M1326.21,8.31L1326.21,-128.09L1207.33,-128.09L1207.33,8.31L1146.78,8.31L1146.78,-312.71L1207.73,-312.71L1207.73,-185.51L1326.61,-185.51L1326.61,-311.511C1346.64,-293.86 1366.79,-290.665 1387.16,-311.511L1387.16,8.31L1326.21,8.31Z" style="fill:rgb(0,199,138);"/>
    </g>
    <g transform="matrix(0.182687,0,0,0.182687,-1180.76,-174.412)">
        <path d="M7524.74,1258.19C7540.82,1258.19 7553.85,1245.15 7553.85,1229.07L7553.85,1075.38C7553.85,1002.82 7508.85,955.565 7441.92,956.127C7408.17,957.252 7372.73,974.69 7362.04,987.065L7353.04,998.315L7338.98,983.127C7321.54,964.565 7292.29,955.565 7261.92,955.565C7196.1,956.127 7150.54,1011.25 7150.54,1079.32L7150.54,1228.75C7150.54,1236.7 7153.7,1244.34 7159.33,1249.96C7164.96,1255.59 7172.59,1258.75 7180.55,1258.75L7181.1,1258.75C7197.77,1258.75 7211.29,1245.23 7211.29,1228.56L7211.29,1074.25C7211.29,1023.63 7246.17,1007.32 7262.48,1009C7287.23,1010.13 7320.98,1016.32 7320.98,1075.94L7320.98,1224.96C7320.98,1233.92 7324.54,1242.52 7330.88,1248.86C7337.21,1255.19 7345.81,1258.75 7354.77,1258.75L7354.78,1258.75C7369.97,1258.75 7382.29,1246.43 7382.29,1231.24L7382.29,1083.25C7382.29,1026.44 7409.29,1011.82 7440.23,1010.69C7470.04,1010.13 7494.79,1029.82 7494.79,1083.25L7494.79,1229.03C7494.79,1245.13 7507.85,1258.19 7523.95,1258.19L7524.74,1258.19Z" style="fill:rgb(168,70,247);fill-rule:nonzero;"/>
    </g>
    <g transform="matrix(0.182687,0,0,0.182687,-1182.23,-174.412)">
        <path d="M7882.92,1127.13L7826.67,1120.94C7824.98,1176.63 7779.42,1209.25 7734.98,1209.82C7680.98,1209.82 7636.54,1165.38 7635.98,1111.38C7635.98,1059.07 7674.79,1012.94 7727.67,1011.82C7755.23,1010.69 7781.1,1021.38 7795.17,1037.69C7795.17,1037.69 7713.44,1084.44 7672.88,1107.63C7666.98,1111.01 7662.67,1116.6 7660.89,1123.16C7659.12,1129.72 7660.03,1136.72 7663.43,1142.61C7666.74,1148.35 7672.19,1152.53 7678.59,1154.23C7684.99,1155.94 7691.8,1155.03 7697.52,1151.71C7748.44,1122.16 7871.67,1050.63 7871.67,1050.63C7844.67,995.502 7795.73,958.377 7731.04,958.377C7648.35,958.377 7579.73,1024.19 7577.48,1106.88C7575.79,1191.25 7643.29,1262.13 7727.67,1264.38C7807.54,1265.5 7874.48,1210.94 7882.92,1127.13Z" style="fill:rgb(168,70,247);fill-rule:nonzero;"/>
    </g>
    <g transform="matrix(0.182687,0,0,0.182687,-1170.88,-174.412)">
        <path d="M8099.6,1258.75C8115.4,1258.75 8128.23,1245.98 8128.3,1230.18C8128.6,1166.86 8129.29,1020.25 8129.29,1020.25L8162.39,1020.25C8169.81,1020.25 8176.91,1017.31 8182.15,1012.07C8187.39,1006.83 8190.34,999.719 8190.34,992.307L8190.34,990.046C8190.34,982.542 8187.36,975.345 8182.05,970.039C8176.74,964.733 8169.55,961.752 8162.05,961.752L8009.11,961.752L8009.11,1020.25L8070.79,1020.25L8070.79,1231.02C8070.79,1246.34 8083.21,1258.75 8098.52,1258.75L8099.6,1258.75Z" style="fill:rgb(168,70,247);fill-rule:nonzero;"/>
    </g>
    <g transform="matrix(0.182687,0,0,0.182687,-1208.58,-174.412)">
        <path d="M8099.79,1258.75C8115.48,1258.75 8128.23,1246.07 8128.3,1230.38C8128.6,1167.15 8129.29,1020.25 8129.29,1020.25L8192.97,1020.25L8192.97,961.752L8040.49,961.752C8024.61,961.752 8011.74,974.621 8011.74,990.496L8011.74,991.589C8011.74,999.191 8014.76,1006.48 8020.14,1011.86C8025.51,1017.23 8032.8,1020.25 8040.4,1020.25L8070.79,1020.25L8070.79,1230.19C8070.79,1245.96 8083.58,1258.75 8099.36,1258.75L8099.79,1258.75Z" style="fill:rgb(168,70,247);fill-rule:nonzero;"/>
    </g>
    <g transform="matrix(0.182687,0,0,0.182687,-1180.95,-174.412)">
        <path d="M8505.19,1258.75C8512.31,1258.75 8519.14,1255.92 8524.18,1250.89C8529.21,1245.85 8532.04,1239.02 8532.04,1231.9L8532.04,1112.5C8532.04,1036 8475.23,963.44 8381.29,960.627C8290.73,956.127 8229.42,1025.88 8225.48,1106.88C8221.54,1191.25 8288.48,1255.94 8366.67,1264.38C8402.67,1267.75 8453.29,1244.69 8457.23,1243L8457.23,1184.5C8453.29,1188.44 8409.98,1214.32 8377.35,1212.63C8323.92,1207.57 8285.1,1169.32 8282.85,1118.13C8279.48,1063 8321.67,1010.13 8376.79,1011.82C8381.29,1011.82 8475.79,1011.82 8475.23,1131.63L8475.23,1228.8C8475.23,1236.74 8478.38,1244.36 8484,1249.98C8489.62,1255.6 8497.24,1258.75 8505.18,1258.75L8505.19,1258.75Z" style="fill:rgb(168,70,247);fill-rule:nonzero;"/>
    </g>
    <g transform="matrix(0.48,0,0,0.48,-4912.38,-685.786)">
        <path d="M10252.7,1573.4L10261.4,1585.07C10262.2,1585.81 10262.9,1586.68 10263.7,1587.3C10266.3,1589.13 10269.7,1589.75 10272.8,1588.8C10274.9,1588.18 10276.5,1586.7 10278,1585.23L10279.6,1582.45L10301,1524.33L10327,1631.38C10328,1633.81 10328,1634.63 10329.9,1636.48C10333.6,1639.97 10339.8,1640.14 10343.6,1637.08C10345.7,1635.4 10345.8,1634.58 10347,1632.25L10368.8,1567.32C10378.3,1565.47 10385.5,1557.09 10385.5,1547.03C10385.5,1541.75 10383.5,1536.92 10380.3,1533.26L10393.7,1493.18L10423.8,1597.07C10425,1599.55 10425.1,1600.43 10427.2,1602.23C10430.5,1604.91 10435.4,1605.28 10439,1603.22C10441.5,1601.82 10441.7,1600.96 10443.2,1598.71L10455.5,1573.4L10472.1,1573.4L10472.1,1608.08C10472.1,1640.45 10445.9,1666.74 10413.5,1666.74L10292.8,1666.74C10260.4,1666.74 10234.2,1640.45 10234.2,1608.08L10234.2,1573.4L10252.7,1573.4Z" style="fill:rgb(0,187,128);"/>
    </g>
    <g transform="matrix(0.48,0,0,0.48,-4912.38,-685.786)">
        <path d="M10413.5,1428.76C10445.9,1428.76 10472.1,1455.05 10472.1,1487.42L10472.1,1552.56L10448.9,1552.56C10448,1552.7 10447,1552.7 10446.1,1552.97C10443.5,1553.69 10443.1,1554.38 10441.2,1556.03L10439.6,1558.44L10436.3,1565.2L10404.5,1455.4C10403.4,1453.06 10403.4,1452.26 10401.4,1450.5C10398.5,1447.9 10394,1447.2 10390.4,1448.71C10388,1449.74 10387.7,1450.48 10385.9,1452.36L10384.6,1454.98L10360.5,1526.84C10351.2,1528.86 10344.2,1537.14 10344.2,1547.03C10344.2,1552.15 10346.1,1556.84 10349.1,1560.45L10338.7,1591.41L10313.2,1486.2C10312.3,1483.81 10312.3,1483 10310.3,1481.15C10307.5,1478.45 10303.1,1477.5 10299.4,1478.93C10296.9,1479.89 10296.6,1480.62 10294.7,1482.46L10293.4,1485.05L10266.7,1557.23L10266.3,1556.75C10264.7,1555 10264.7,1554.99 10262.6,1553.67C10261.9,1553.39 10261.1,1553.12 10260.4,1552.84L10258,1552.56L10234.2,1552.56L10234.2,1487.42C10234.2,1455.05 10260.4,1428.76 10292.8,1428.76L10413.5,1428.76Z" style="fill:rgb(168,70,247);"/>
    </g>
</svg>
